<svg version="1.1" id="Layer_1" xmlns="http://www.w3.org/2000/svg" xmlns:xlink="http://www.w3.org/1999/xlink" x="0px" y="0px"
	 width="100%" viewBox="0 0 4749 1136" enable-background="new 0 0 4749 1136" xml:space="preserve">
<path fill="#FFFFFF" opacity="1.000000" stroke="none" 
	d="
M3530.000000,1138.000000 
	C2353.333252,1138.000000 1177.666626,1138.000000 2.000000,1138.000000 
	C2.000000,759.333313 2.000000,380.666656 2.000000,2.000000 
	C1585.333374,2.000000 3168.666748,2.000000 4752.000000,2.000000 
	C4752.000000,380.666656 4752.000000,759.333313 4752.000000,1138.000000 
	C4345.000000,1138.000000 3938.000000,1138.000000 3530.000000,1138.000000 
M497.838654,862.107117 
	C505.640411,855.932678 514.035706,850.369202 521.135437,843.472168 
	C544.756165,820.525513 567.631287,796.889343 589.296997,772.000366 
	C610.517883,747.622437 629.281128,721.460693 648.118286,695.372070 
	C681.160706,649.610046 705.588806,598.998169 728.346863,547.571716 
	C740.064758,521.092773 750.502197,494.102112 758.205505,466.165009 
	C765.612366,439.303253 773.219604,412.459320 779.356567,385.295258 
	C785.624146,357.552490 790.234802,329.434418 795.487427,301.464996 
	C795.912354,299.202606 795.769775,296.818756 795.758057,294.492004 
	C795.715393,286.021515 795.681641,286.044250 787.286621,283.864349 
	C767.362122,278.690704 747.457703,273.439423 727.523499,268.303833 
	C657.752319,250.328918 587.983093,232.346146 518.178650,214.501404 
	C510.849609,212.627823 503.291901,211.648636 494.211975,209.894226 
	C491.278503,210.336227 488.274109,210.508652 485.421906,211.259338 
	C397.276398,234.458527 309.141479,257.697968 221.020462,280.990082 
	C213.354477,283.016327 205.795303,285.446777 197.628876,287.853882 
	C198.085129,294.169189 198.066177,299.828339 198.970444,305.335876 
	C201.923965,323.324707 205.246872,341.252563 208.368073,359.214233 
	C215.708572,401.456787 225.450882,443.130035 237.861740,484.175293 
	C248.201431,518.370789 263.475311,550.529419 278.443329,582.824341 
	C300.356384,630.103760 326.843109,674.609375 358.152313,716.294189 
	C376.135529,740.236938 394.339172,763.953064 414.670013,785.992981 
	C433.826233,806.759399 452.521881,827.951782 471.755829,848.644775 
	C477.158386,854.457214 483.752869,859.159790 489.784271,864.390381 
	C492.992950,867.173035 495.128967,866.169617 497.838654,862.107117 
M1399.431274,499.609467 
	C1395.268188,482.501678 1391.087646,465.398102 1386.945190,448.285309 
	C1373.732788,393.704102 1360.548828,339.115936 1347.310791,284.540894 
	C1345.847534,278.508453 1344.105835,272.543488 1342.580200,266.870544 
	C1300.958618,266.870544 1260.400513,266.870544 1219.607544,266.870544 
	C1219.042358,268.424255 1218.485474,269.601379 1218.182495,270.840576 
	C1213.606201,289.561890 1209.057739,308.289948 1204.513550,327.019104 
	C1189.626465,388.376465 1174.715088,449.727966 1159.866943,511.094757 
	C1143.223267,579.882385 1126.653076,648.687744 1109.985107,717.469482 
	C1109.113770,721.065430 1109.040771,725.174561 1104.776123,728.816162 
	C1069.783081,573.984070 1035.042847,420.271393 1000.388367,266.937531 
	C958.178101,266.937531 917.317444,266.937531 875.067017,266.937531 
	C926.134705,466.559906 976.983276,665.325806 1027.760254,863.811646 
	C1077.113037,863.811646 1125.003906,863.811646 1173.569092,863.811646 
	C1178.622925,842.861084 1183.541626,822.217529 1188.592163,801.606262 
	C1193.653931,780.949524 1198.866211,760.329712 1203.977783,739.685059 
	C1209.089111,719.041077 1214.170898,698.389832 1219.241089,677.735718 
	C1224.232666,657.401672 1229.165283,637.053040 1234.175415,616.723511 
	C1239.264282,596.073669 1244.483154,575.455688 1249.521729,554.793640 
	C1254.560303,534.132202 1259.205322,513.372009 1264.467529,492.768646 
	C1269.632690,472.544922 1273.862793,452.041473 1280.073364,432.104767 
	C1280.900024,432.140686 1281.726685,432.176605 1282.553345,432.212524 
	C1317.849731,576.011047 1353.146118,719.809631 1388.461914,863.686768 
	C1437.404175,863.686768 1485.539551,863.686768 1534.352417,863.686768 
	C1585.237549,664.726318 1636.012207,466.197754 1686.994263,266.858459 
	C1644.583740,266.858459 1603.690063,266.858459 1561.732300,266.858459 
	C1556.749268,288.596344 1551.684692,310.533875 1546.698120,332.489197 
	C1541.694946,354.517426 1536.774048,376.564392 1531.809082,398.601288 
	C1526.844971,420.634521 1521.878784,442.667297 1516.898560,464.696899 
	C1511.917725,486.730103 1506.884399,508.751526 1501.936279,530.792114 
	C1496.988770,552.829956 1492.167114,574.896179 1487.200195,596.929565 
	C1482.233276,618.962891 1477.300171,641.005554 1472.083496,662.980286 
	C1466.957153,684.574341 1463.103027,706.503235 1456.929321,727.831177 
	C1456.130615,727.788513 1455.332031,727.745911 1454.533325,727.703308 
	C1436.271362,652.213684 1418.009399,576.724060 1399.431274,499.609467 
M1670.857300,663.799011 
	C1647.248291,730.161865 1623.639160,796.524719 1599.738281,863.707886 
	C1646.472412,863.707886 1691.939819,863.707886 1737.487915,863.707886 
	C1752.180664,816.963623 1766.706299,770.751221 1781.159668,724.768311 
	C1852.300415,724.768311 1922.178833,724.768311 1992.855591,724.768311 
	C2007.452881,771.221130 2021.971680,817.423767 2036.401611,863.343933 
	C2050.925293,865.379639 2166.261230,864.697510 2173.770752,862.437683 
	C2103.247314,663.805847 2032.735352,465.205536 1962.244263,266.664368 
	C1911.783569,266.664368 1862.189819,266.664368 1812.369507,266.664368 
	C1811.577393,268.242340 1810.683960,269.638702 1810.141113,271.160065 
	C1798.967163,302.478790 1787.810181,333.803680 1776.696167,365.143738 
	C1757.466675,419.368225 1738.258057,473.600159 1719.060913,527.836060 
	C1703.190308,572.673401 1687.348755,617.521057 1670.857300,663.799011 
M2814.356445,865.487183 
	C2834.791016,863.352600 2855.302490,861.256836 2875.021729,855.338379 
	C2889.646973,850.948975 2904.032715,845.536377 2918.089844,839.555969 
	C2928.279297,835.221069 2935.915527,827.699463 2936.865479,815.657166 
	C2937.793701,803.892517 2934.206055,801.340149 2923.088379,804.988037 
	C2908.587402,809.746216 2894.134033,814.772949 2879.376709,818.589111 
	C2867.180908,821.742737 2854.542725,823.147461 2842.155762,825.605713 
	C2813.260498,831.340027 2784.346436,833.197693 2755.268311,826.942505 
	C2728.272217,821.135193 2703.275635,811.554626 2682.324707,792.532471 
	C2666.388672,778.063721 2654.905518,761.031738 2647.829590,740.914551 
	C2642.322510,725.256897 2636.964600,709.694153 2634.125977,693.074768 
	C2631.290039,676.471802 2631.331299,660.147095 2631.367676,642.297180 
	C2635.924805,642.297180 2639.826660,642.297119 2643.728516,642.297180 
	C2740.704346,642.298279 2837.679932,642.300659 2934.655762,642.295288 
	C2937.653809,642.295105 2940.665771,642.382385 2943.646484,642.131775 
	C2947.470459,641.810181 2949.774414,639.699097 2949.875000,635.695068 
	C2950.157471,624.443298 2950.402832,613.190552 2950.642822,601.937744 
	C2950.845215,592.457825 2950.265137,583.109070 2948.112549,573.772339 
	C2946.333740,566.055664 2946.313721,557.935791 2944.564209,550.209717 
	C2936.193359,513.240906 2920.958984,479.698151 2894.984131,451.463470 
	C2879.178711,434.282745 2860.825439,421.119446 2839.087646,412.443237 
	C2810.978027,401.223999 2781.695068,401.597748 2752.442383,403.840759 
	C2727.364502,405.763611 2705.251465,416.906403 2683.918701,429.559662 
	C2654.220459,447.175140 2631.179932,471.104828 2616.059814,502.179718 
	C2605.298828,524.295105 2597.563721,547.523804 2591.433350,571.416809 
	C2583.368408,602.851074 2582.564209,634.636780 2586.514648,666.361694 
	C2590.214355,696.070923 2598.233154,724.944824 2610.129395,752.632996 
	C2624.127441,785.213623 2643.541016,813.339539 2674.744385,831.657288 
	C2686.189697,838.376221 2698.023438,844.650330 2710.252686,849.755676 
	C2722.413086,854.832458 2735.085693,859.060242 2747.903809,862.098999 
	C2769.107666,867.125732 2790.860352,865.875854 2814.356445,865.487183 
M3900.292236,833.509216 
	C3920.500488,780.323181 3940.666016,727.120850 3960.926758,673.954834 
	C3993.273438,589.073242 4025.690430,504.218323 4058.025391,419.332306 
	C4058.783691,417.342102 4058.930176,415.118835 4059.424072,412.698975 
	C4045.403076,412.698975 4032.154541,412.698975 4018.343262,412.698975 
	C3993.562256,478.225037 3968.881348,543.567017 3944.139648,608.885986 
	C3919.469727,674.015747 3895.169678,739.289185 3870.146973,804.282776 
	C3869.310303,804.244751 3868.473389,804.206726 3867.636719,804.168701 
	C3818.283691,673.604431 3768.930664,543.040222 3719.649658,412.666199 
	C3705.345459,412.666199 3692.109375,412.666199 3677.731445,412.666199 
	C3679.085205,416.388458 3680.126221,419.442596 3681.299072,422.445068 
	C3692.559082,451.271606 3703.784424,480.111847 3715.127686,508.905670 
	C3751.719482,601.790833 3788.349609,694.661133 3824.985352,787.529175 
	C3831.580811,804.248840 3838.396973,820.882690 3844.866455,837.650574 
	C3848.087402,845.998596 3851.227051,854.520142 3848.289062,863.717651 
	C3844.978027,874.083557 3841.891113,884.536682 3838.135254,894.741455 
	C3831.826416,911.882385 3825.447998,929.016968 3818.398926,945.861206 
	C3809.269775,967.675598 3800.144043,989.890930 3780.533936,1004.728638 
	C3770.820801,1012.077881 3760.036133,1018.674622 3748.752686,1023.110291 
	C3735.768799,1028.214600 3721.881836,1026.248047 3708.527344,1022.045349 
	C3704.433838,1020.757141 3700.115479,1020.200073 3695.937744,1019.158020 
	C3691.346436,1018.012817 3688.477295,1020.256104 3685.639648,1023.509399 
	C3678.203857,1032.034424 3681.749512,1052.834839 3698.251953,1055.526001 
	C3706.096436,1056.804932 3713.993896,1057.926880 3721.912598,1058.534180 
	C3730.828125,1059.218140 3740.031250,1060.699707 3748.695557,1059.290039 
	C3779.240479,1054.320557 3803.796631,1038.838013 3822.662109,1014.251892 
	C3834.332764,999.041809 3842.888428,982.059875 3849.878174,964.428528 
	C3866.921387,921.437622 3883.258789,878.166870 3900.292236,833.509216 
M3533.739990,613.000000 
	C3533.739990,559.490723 3533.739990,505.981506 3533.739990,451.375122 
	C3569.340576,451.375122 3603.487549,451.375122 3638.287109,451.375122 
	C3638.093018,437.797302 3638.848877,425.323212 3637.767334,412.235596 
	C3625.391602,412.235596 3614.104980,412.237030 3602.818115,412.235199 
	C3591.153320,412.233307 3579.488037,412.274292 3567.823486,412.211334 
	C3556.644043,412.151001 3545.441162,412.473755 3533.749268,411.881622 
	C3533.749268,407.309479 3533.675537,404.006073 3533.761475,400.706787 
	C3534.212158,383.416534 3535.037842,366.128113 3535.078369,348.837494 
	C3535.113037,334.128387 3536.765381,319.819000 3540.297119,305.478455 
	C3548.376709,272.671875 3573.056885,255.039276 3600.439697,252.194183 
	C3623.629395,249.784760 3647.168213,250.234955 3669.233398,259.866394 
	C3676.255859,262.931641 3679.544189,262.765076 3684.111572,255.003601 
	C3688.571533,247.424667 3691.213623,238.776230 3694.974854,229.833618 
	C3690.238037,227.616165 3686.794678,225.719162 3683.153076,224.350479 
	C3669.645508,219.273529 3655.435059,217.532257 3641.203613,216.265518 
	C3631.302002,215.384171 3621.310547,214.664825 3611.398682,215.009857 
	C3603.153076,215.296906 3594.875488,216.817230 3586.770264,218.537231 
	C3569.764893,222.145981 3552.897705,226.724030 3539.729980,238.848938 
	C3532.960205,245.082748 3527.011475,252.419434 3521.663330,259.948059 
	C3502.890137,286.374298 3493.312744,316.043610 3492.010254,348.387329 
	C3491.222656,367.952515 3490.605713,387.524597 3489.842285,407.090851 
	C3489.807861,407.971741 3489.080566,408.825592 3488.220215,410.668274 
	C3463.358154,410.668274 3438.193359,410.668274 3412.442383,410.668274 
	C3412.199463,424.853577 3412.123535,437.967804 3412.452637,452.029663 
	C3439.665039,452.029663 3465.507812,452.029663 3492.260010,452.029663 
	C3492.260010,464.251007 3492.260010,475.508179 3492.260010,486.765320 
	C3492.260010,497.763641 3492.260010,508.761932 3492.260010,519.760254 
	C3492.260010,531.091858 3492.260010,542.423462 3492.260010,553.755066 
	C3492.260010,564.753357 3492.260010,575.751709 3492.260010,586.750000 
	C3492.260010,598.081604 3492.260010,609.413208 3492.260010,620.744812 
	C3492.260010,631.743103 3492.260010,642.741455 3492.260010,653.739746 
	C3492.260010,665.071350 3492.260010,676.402954 3492.260010,687.734558 
	C3492.260010,699.066162 3492.260010,710.397705 3492.260010,721.729309 
	C3492.260010,732.727600 3492.260010,743.725952 3492.260010,754.724243 
	C3492.260010,766.055847 3492.260010,777.387451 3492.260010,788.719055 
	C3492.260010,799.717346 3492.147217,810.717163 3492.291748,821.713562 
	C3492.438721,832.879822 3491.630127,844.104065 3492.843750,855.192627 
	C3506.836670,855.192627 3519.709229,855.192627 3533.739746,855.192627 
	C3533.739746,774.762207 3533.739746,694.881104 3533.739990,613.000000 
M2505.487305,504.310455 
	C2492.803955,537.935059 2480.144043,571.568420 2467.431152,605.181824 
	C2454.717041,638.798584 2441.974121,672.404480 2429.198730,705.997925 
	C2416.512939,739.356323 2404.317139,772.909668 2390.046631,806.008728 
	C2387.665527,803.004578 2386.364746,800.103088 2385.241211,797.134338 
	C2372.638184,763.830444 2360.058838,730.517334 2347.479004,697.204346 
	C2321.616943,628.718323 2295.774902,560.224731 2269.888916,491.747620 
	C2260.946777,468.092255 2251.971680,444.448639 2242.792480,420.884918 
	C2241.830322,418.414856 2239.457764,414.732880 2237.608398,414.653229 
	C2224.872559,414.104645 2212.101562,414.364746 2198.187988,414.364746 
	C2256.621582,562.637085 2314.423096,709.305298 2372.131836,855.738037 
	C2384.551758,855.738037 2396.080811,855.738037 2407.881104,855.738037 
	C2465.844482,708.637512 2523.634766,561.976807 2581.842773,414.255524 
	C2569.458252,414.255524 2558.482178,414.552063 2547.532959,414.136536 
	C2541.629395,413.912476 2538.715088,415.754974 2536.605713,421.562256 
	C2526.724121,448.770325 2516.289062,475.777618 2505.487305,504.310455 
M4506.213379,342.343170 
	C4502.573730,342.129517 4498.934570,341.733521 4495.294922,341.730011 
	C4450.979004,341.687256 4406.662598,341.714447 4362.346680,341.680603 
	C4358.519531,341.677704 4354.692383,341.370056 4349.879883,341.161194 
	C4349.879883,288.029785 4349.879883,236.223389 4349.879883,184.306763 
	C4336.312500,184.306763 4323.815918,184.306763 4310.270996,184.306763 
	C4310.270996,197.804031 4310.270996,210.712555 4310.270996,223.621078 
	C4310.270996,236.615982 4310.270996,249.610870 4310.270996,262.605774 
	C4310.270996,275.933899 4310.321777,289.262238 4310.256348,302.590057 
	C4310.193359,315.417480 4310.547363,328.267548 4310.004883,341.702271 
	C4298.337891,341.702271 4288.052246,341.702271 4277.766113,341.702271 
	C4267.437012,341.702271 4257.107422,341.702271 4246.778320,341.702271 
	C4236.449219,341.702271 4226.119629,341.702271 4215.790527,341.702271 
	C4205.461426,341.702271 4195.131348,341.626801 4184.802734,341.723663 
	C4174.625977,341.819061 4164.408203,341.290375 4154.363281,342.049072 
	C4154.363281,355.798828 4154.363281,368.291321 4154.363281,381.891205 
	C4206.460449,381.891205 4257.909668,381.891205 4310.270996,381.891205 
	C4310.270996,396.585907 4310.270996,410.171783 4310.270996,423.757690 
	C4310.270996,437.085785 4310.270996,450.413910 4310.270996,463.742004 
	C4310.270996,477.403320 4310.216309,491.064911 4310.286133,504.725861 
	C4310.354980,518.223633 4309.960938,531.745544 4310.566406,545.042969 
	C4324.492188,545.042969 4337.000488,545.042969 4350.451172,545.042969 
	C4350.451172,490.523102 4350.451172,436.687653 4350.451172,381.681946 
	C4403.168945,381.681946 4454.939941,381.681946 4507.385742,381.681946 
	C4507.385742,368.280029 4507.385742,356.042969 4506.213379,342.343170 
M3048.291992,745.000000 
	C3049.129639,690.745911 3046.296631,636.444763 3050.286377,582.235901 
	C3050.817627,575.017273 3051.849121,567.768005 3053.422119,560.705261 
	C3059.669434,532.659851 3072.171631,507.543579 3089.854980,484.969818 
	C3102.651123,468.634918 3118.914551,456.588623 3137.717529,448.266785 
	C3147.703613,443.847168 3158.487061,441.691010 3169.649902,441.621735 
	C3187.434570,441.511353 3204.647461,444.787354 3221.723389,449.266602 
	C3229.261230,451.243866 3234.776367,449.456116 3238.432617,444.017242 
	C3243.906250,435.874298 3243.591064,426.664490 3241.539551,417.976196 
	C3239.915771,411.099884 3232.197021,410.208984 3226.451904,407.854218 
	C3224.339355,406.988281 3221.991699,406.384247 3219.720215,406.267303 
	C3202.153809,405.362823 3184.546143,403.584961 3167.019775,404.163422 
	C3155.282471,404.550812 3143.121826,406.905090 3132.118408,410.987854 
	C3118.510742,416.037079 3105.545654,423.177307 3095.673584,434.632507 
	C3090.495117,440.641479 3084.299316,445.837524 3079.565674,452.152069 
	C3070.417236,464.355988 3061.989258,477.099335 3053.235840,489.600189 
	C3052.058350,491.281738 3050.724854,492.853882 3047.951660,496.422485 
	C3047.951660,467.712952 3047.951660,441.538574 3047.951660,414.789185 
	C3034.373047,414.789185 3021.584229,414.789185 3008.251953,414.789185 
	C3008.251953,562.456543 3008.251953,709.509521 3008.251953,857.146179 
	C3021.569824,857.146179 3034.359131,857.146179 3048.292236,857.146179 
	C3048.292236,820.087097 3048.292236,783.543579 3048.291992,745.000000 
M3292.255127,783.000000 
	C3292.255127,806.883057 3292.255127,830.766113 3292.255127,855.752502 
	C3299.950684,855.752502 3306.524414,855.752502 3313.098389,855.752502 
	C3319.655762,855.752502 3326.213135,855.752502 3333.165039,855.752502 
	C3333.165039,708.117310 3333.165039,561.743652 3333.165039,414.877960 
	C3319.479248,414.877960 3306.376465,414.877960 3292.255371,414.877960 
	C3292.255371,537.337036 3292.255371,659.168518 3292.255127,783.000000 
M3289.347168,317.324432 
	C3293.732910,323.731689 3298.739746,329.534607 3306.663086,331.423523 
	C3316.858887,333.854156 3326.889893,329.020569 3333.716553,318.843903 
	C3344.951904,302.093628 3344.580322,275.062531 3332.606445,258.674835 
	C3327.757080,252.037521 3321.597900,247.764786 3312.659424,247.527664 
	C3301.475342,247.231003 3294.452881,253.103867 3289.479004,261.816010 
	C3279.331543,279.590485 3279.780518,297.817719 3289.347168,317.324432 
z"/>
<path fill="#1A7FBC" opacity="1.000000" stroke="none" 
	d="
M1399.589355,500.421936 
	C1418.009399,576.724060 1436.271362,652.213684 1454.533325,727.703308 
	C1455.332031,727.745911 1456.130615,727.788513 1456.929321,727.831177 
	C1463.103027,706.503235 1466.957153,684.574341 1472.083496,662.980286 
	C1477.300171,641.005554 1482.233276,618.962891 1487.200195,596.929565 
	C1492.167114,574.896179 1496.988770,552.829956 1501.936279,530.792114 
	C1506.884399,508.751526 1511.917725,486.730103 1516.898560,464.696899 
	C1521.878784,442.667297 1526.844971,420.634521 1531.809082,398.601288 
	C1536.774048,376.564392 1541.694946,354.517426 1546.698120,332.489197 
	C1551.684692,310.533875 1556.749268,288.596344 1561.732300,266.858459 
	C1603.690063,266.858459 1644.583740,266.858459 1686.994263,266.858459 
	C1636.012207,466.197754 1585.237549,664.726318 1534.352417,863.686768 
	C1485.539551,863.686768 1437.404175,863.686768 1388.461914,863.686768 
	C1353.146118,719.809631 1317.849731,576.011047 1282.553345,432.212524 
	C1281.726685,432.176605 1280.900024,432.140686 1280.073364,432.104767 
	C1273.862793,452.041473 1269.632690,472.544922 1264.467529,492.768646 
	C1259.205322,513.372009 1254.560303,534.132202 1249.521729,554.793640 
	C1244.483154,575.455688 1239.264282,596.073669 1234.175415,616.723511 
	C1229.165283,637.053040 1224.232666,657.401672 1219.241089,677.735718 
	C1214.170898,698.389832 1209.089111,719.041077 1203.977783,739.685059 
	C1198.866211,760.329712 1193.653931,780.949524 1188.592163,801.606262 
	C1183.541626,822.217529 1178.622925,842.861084 1173.569092,863.811646 
	C1125.003906,863.811646 1077.113037,863.811646 1027.760254,863.811646 
	C976.983276,665.325806 926.134705,466.559906 875.067017,266.937531 
	C917.317444,266.937531 958.178101,266.937531 1000.388367,266.937531 
	C1035.042847,420.271393 1069.783081,573.984070 1104.776123,728.816162 
	C1109.040771,725.174561 1109.113770,721.065430 1109.985107,717.469482 
	C1126.653076,648.687744 1143.223267,579.882385 1159.866943,511.094757 
	C1174.715088,449.727966 1189.626465,388.376465 1204.513550,327.019104 
	C1209.057739,308.289948 1213.606201,289.561890 1218.182495,270.840576 
	C1218.485474,269.601379 1219.042358,268.424255 1219.607544,266.870544 
	C1260.400513,266.870544 1300.958618,266.870544 1342.580200,266.870544 
	C1344.105835,272.543488 1345.847534,278.508453 1347.310791,284.540894 
	C1360.548828,339.115936 1373.732788,393.704102 1386.945190,448.285309 
	C1391.087646,465.398102 1395.268188,482.501678 1399.589355,500.421936 
z"/>
<path fill="#197FBC" opacity="1.000000" stroke="none" 
	d="
M1671.175781,663.081543 
	C1687.348755,617.521057 1703.190308,572.673401 1719.060913,527.836060 
	C1738.258057,473.600159 1757.466675,419.368225 1776.696167,365.143738 
	C1787.810181,333.803680 1798.967163,302.478790 1810.141113,271.160065 
	C1810.683960,269.638702 1811.577393,268.242340 1812.369507,266.664368 
	C1862.189819,266.664368 1911.783569,266.664368 1962.244263,266.664368 
	C2032.735352,465.205536 2103.247314,663.805847 2173.770752,862.437683 
	C2166.261230,864.697510 2050.925293,865.379639 2036.401611,863.343933 
	C2021.971680,817.423767 2007.452881,771.221130 1992.855591,724.768311 
	C1922.178833,724.768311 1852.300415,724.768311 1781.159668,724.768311 
	C1766.706299,770.751221 1752.180664,816.963623 1737.487915,863.707886 
	C1691.939819,863.707886 1646.472412,863.707886 1599.738281,863.707886 
	C1623.639160,796.524719 1647.248291,730.161865 1671.175781,663.081543 
M1918.122559,470.792389 
	C1908.143066,436.073822 1898.163574,401.355255 1888.184082,366.636658 
	C1887.378662,366.617065 1886.573120,366.597443 1885.767700,366.577820 
	C1862.214233,448.711426 1838.660767,530.845032 1814.852539,613.867065 
	C1863.470215,613.867065 1910.594116,613.867065 1959.139648,613.867065 
	C1945.416748,566.075500 1931.962646,519.220276 1918.122559,470.792389 
z"/>
<path fill="#B0C13C" opacity="1.000000" stroke="none" 
	d="
M496.575226,862.545898 
	C495.128967,866.169617 492.992950,867.173035 489.784271,864.390381 
	C483.752869,859.159790 477.158386,854.457214 471.755829,848.644775 
	C452.521881,827.951782 433.826233,806.759399 414.670013,785.992981 
	C394.339172,763.953064 376.135529,740.236938 358.152313,716.294189 
	C326.843109,674.609375 300.356384,630.103760 278.443329,582.824341 
	C263.475311,550.529419 248.201431,518.370789 237.861740,484.175293 
	C225.450882,443.130035 215.708572,401.456787 208.368073,359.214233 
	C205.246872,341.252563 201.923965,323.324707 198.970444,305.335876 
	C198.066177,299.828339 198.085129,294.169189 197.628876,287.853882 
	C205.795303,285.446777 213.354477,283.016327 221.020462,280.990082 
	C309.141479,257.697968 397.276398,234.458527 485.421906,211.259338 
	C488.274109,210.508652 491.278503,210.336227 495.045593,210.990326 
	C495.902100,215.085648 495.944824,218.084839 495.945007,221.084045 
	C495.953918,351.059967 495.945435,481.035858 496.020905,611.011719 
	C496.023560,615.608093 496.854675,620.203979 497.060516,625.540771 
	C495.554138,630.023743 497.243927,634.874573 491.675262,638.698120 
	C477.022583,585.816406 462.635254,533.892578 448.302216,482.164581 
	C422.041870,482.164581 397.263672,482.164581 370.726807,482.164581 
	C400.029419,559.639221 428.862152,635.871460 457.934082,712.736145 
	C471.190002,712.736145 483.464874,712.736145 495.777954,713.626343 
	C495.850281,759.903320 495.868408,805.290161 495.946686,850.676941 
	C495.953522,854.633606 496.356323,858.589600 496.575226,862.545898 
z"/>
<path fill="#D1DD88" opacity="1.000000" stroke="none" 
	d="
M497.299683,624.800049 
	C496.854675,620.203979 496.023560,615.608093 496.020905,611.011719 
	C495.945435,481.035858 495.953918,351.059967 495.945007,221.084045 
	C495.944824,218.084839 495.902100,215.085648 495.859741,211.170471 
	C503.291901,211.648636 510.849609,212.627823 518.178650,214.501404 
	C587.983093,232.346146 657.752319,250.328918 727.523499,268.303833 
	C747.457703,273.439423 767.362122,278.690704 787.286621,283.864349 
	C795.681641,286.044250 795.715393,286.021515 795.758057,294.492004 
	C795.769775,296.818756 795.912354,299.202606 795.487427,301.464996 
	C790.234802,329.434418 785.624146,357.552490 779.356567,385.295258 
	C773.219604,412.459320 765.612366,439.303253 758.205505,466.165009 
	C750.502197,494.102112 740.064758,521.092773 728.346863,547.571716 
	C705.588806,598.998169 681.160706,649.610046 648.118286,695.372070 
	C629.281128,721.460693 610.517883,747.622437 589.296997,772.000366 
	C567.631287,796.889343 544.756165,820.525513 521.135437,843.472168 
	C514.035706,850.369202 505.640411,855.932678 497.206940,862.326538 
	C496.356323,858.589600 495.953522,854.633606 495.946686,850.676941 
	C495.868408,805.290161 495.850281,759.903320 496.712067,713.423523 
	C504.933899,712.268677 512.260010,712.221802 519.585693,712.140930 
	C528.129761,712.046631 528.561279,711.817810 531.473694,704.486694 
	C544.234436,672.365540 556.911011,640.210876 569.704651,608.102783 
	C595.658447,542.966980 621.653381,477.847504 647.662537,412.733795 
	C657.528870,388.033356 667.558044,363.397614 677.319275,338.655945 
	C678.945068,334.534912 679.575378,330.021118 681.050415,324.160278 
	C673.828491,324.160278 668.212219,323.753784 662.672546,324.232727 
	C641.884766,326.030121 621.137634,328.315552 600.338684,329.953308 
	C595.209534,330.357178 592.700317,331.956818 591.192871,336.993713 
	C586.430786,352.905365 581.147461,368.661102 576.059082,384.475006 
	C563.236633,424.325714 550.398560,464.171387 537.589905,504.026489 
	C527.216064,536.305603 516.967590,568.625305 506.456635,600.859619 
	C503.811249,608.972412 500.373383,616.826843 497.299683,624.800049 
z"/>
<path fill="#B1C13E" opacity="1.000000" stroke="none" 
	d="
M2813.412598,865.510742 
	C2790.860352,865.875854 2769.107666,867.125732 2747.903809,862.098999 
	C2735.085693,859.060242 2722.413086,854.832458 2710.252686,849.755676 
	C2698.023438,844.650330 2686.189697,838.376221 2674.744385,831.657288 
	C2643.541016,813.339539 2624.127441,785.213623 2610.129395,752.632996 
	C2598.233154,724.944824 2590.214355,696.070923 2586.514648,666.361694 
	C2582.564209,634.636780 2583.368408,602.851074 2591.433350,571.416809 
	C2597.563721,547.523804 2605.298828,524.295105 2616.059814,502.179718 
	C2631.179932,471.104828 2654.220459,447.175140 2683.918701,429.559662 
	C2705.251465,416.906403 2727.364502,405.763611 2752.442383,403.840759 
	C2781.695068,401.597748 2810.978027,401.223999 2839.087646,412.443237 
	C2860.825439,421.119446 2879.178711,434.282745 2894.984131,451.463470 
	C2920.958984,479.698151 2936.193359,513.240906 2944.564209,550.209717 
	C2946.313721,557.935791 2946.333740,566.055664 2948.112549,573.772339 
	C2950.265137,583.109070 2950.845215,592.457825 2950.642822,601.937744 
	C2950.402832,613.190552 2950.157471,624.443298 2949.875000,635.695068 
	C2949.774414,639.699097 2947.470459,641.810181 2943.646484,642.131775 
	C2940.665771,642.382385 2937.653809,642.295105 2934.655762,642.295288 
	C2837.679932,642.300659 2740.704346,642.298279 2643.728516,642.297180 
	C2639.826660,642.297119 2635.924805,642.297180 2631.367676,642.297180 
	C2631.331299,660.147095 2631.290039,676.471802 2634.125977,693.074768 
	C2636.964600,709.694153 2642.322510,725.256897 2647.829590,740.914551 
	C2654.905518,761.031738 2666.388672,778.063721 2682.324707,792.532471 
	C2703.275635,811.554626 2728.272217,821.135193 2755.268311,826.942505 
	C2784.346436,833.197693 2813.260498,831.340027 2842.155762,825.605713 
	C2854.542725,823.147461 2867.180908,821.742737 2879.376709,818.589111 
	C2894.134033,814.772949 2908.587402,809.746216 2923.088379,804.988037 
	C2934.206055,801.340149 2937.793701,803.892517 2936.865479,815.657166 
	C2935.915527,827.699463 2928.279297,835.221069 2918.089844,839.555969 
	C2904.032715,845.536377 2889.646973,850.948975 2875.021729,855.338379 
	C2855.302490,861.256836 2834.791016,863.352600 2813.412598,865.510742 
M2786.086914,438.567566 
	C2774.212891,439.578278 2762.162598,439.650543 2750.510254,441.840729 
	C2736.418945,444.489258 2723.356934,450.534271 2710.747314,457.538300 
	C2686.147949,471.202057 2667.009277,490.510529 2654.788818,515.501770 
	C2643.822021,537.929443 2637.160889,562.163086 2632.767822,586.826599 
	C2631.869385,591.870789 2632.637451,597.211914 2632.637451,602.146851 
	C2643.220947,604.474915 2903.296143,604.204041 2911.766113,601.804199 
	C2911.766113,596.885132 2912.534668,591.518372 2911.635986,586.447083 
	C2907.229248,561.579102 2901.786621,536.960083 2892.170166,513.452637 
	C2879.451416,482.360565 2858.501953,459.174255 2826.578613,447.667603 
	C2814.215332,443.211212 2800.789551,441.701263 2786.086914,438.567566 
z"/>
<path fill="#B1C03F" opacity="1.000000" stroke="none" 
	d="
M3900.086182,834.258972 
	C3883.258789,878.166870 3866.921387,921.437622 3849.878174,964.428528 
	C3842.888428,982.059875 3834.332764,999.041809 3822.662109,1014.251892 
	C3803.796631,1038.838013 3779.240479,1054.320557 3748.695557,1059.290039 
	C3740.031250,1060.699707 3730.828125,1059.218140 3721.912598,1058.534180 
	C3713.993896,1057.926880 3706.096436,1056.804932 3698.251953,1055.526001 
	C3681.749512,1052.834839 3678.203857,1032.034424 3685.639648,1023.509399 
	C3688.477295,1020.256104 3691.346436,1018.012817 3695.937744,1019.158020 
	C3700.115479,1020.200073 3704.433838,1020.757141 3708.527344,1022.045349 
	C3721.881836,1026.248047 3735.768799,1028.214600 3748.752686,1023.110291 
	C3760.036133,1018.674622 3770.820801,1012.077881 3780.533936,1004.728638 
	C3800.144043,989.890930 3809.269775,967.675598 3818.398926,945.861206 
	C3825.447998,929.016968 3831.826416,911.882385 3838.135254,894.741455 
	C3841.891113,884.536682 3844.978027,874.083557 3848.289062,863.717651 
	C3851.227051,854.520142 3848.087402,845.998596 3844.866455,837.650574 
	C3838.396973,820.882690 3831.580811,804.248840 3824.985352,787.529175 
	C3788.349609,694.661133 3751.719482,601.790833 3715.127686,508.905670 
	C3703.784424,480.111847 3692.559082,451.271606 3681.299072,422.445068 
	C3680.126221,419.442596 3679.085205,416.388458 3677.731445,412.666199 
	C3692.109375,412.666199 3705.345459,412.666199 3719.649658,412.666199 
	C3768.930664,543.040222 3818.283691,673.604431 3867.636719,804.168701 
	C3868.473389,804.206726 3869.310303,804.244751 3870.146973,804.282776 
	C3895.169678,739.289185 3919.469727,674.015747 3944.139648,608.885986 
	C3968.881348,543.567017 3993.562256,478.225037 4018.343262,412.698975 
	C4032.154541,412.698975 4045.403076,412.698975 4059.424072,412.698975 
	C4058.930176,415.118835 4058.783691,417.342102 4058.025391,419.332306 
	C4025.690430,504.218323 3993.273438,589.073242 3960.926758,673.954834 
	C3940.666016,727.120850 3920.500488,780.323181 3900.086182,834.258972 
z"/>
<path fill="#B2C140" opacity="1.000000" stroke="none" 
	d="
M3533.739746,614.000000 
	C3533.739746,694.881104 3533.739746,774.762207 3533.739746,855.192627 
	C3519.709229,855.192627 3506.836670,855.192627 3492.843750,855.192627 
	C3491.630127,844.104065 3492.438721,832.879822 3492.291748,821.713562 
	C3492.147217,810.717163 3492.260010,799.717346 3492.260010,788.719055 
	C3492.260010,777.387451 3492.260010,766.055847 3492.260010,754.724243 
	C3492.260010,743.725952 3492.260010,732.727600 3492.260010,721.729309 
	C3492.260010,710.397705 3492.260010,699.066162 3492.260010,687.734558 
	C3492.260010,676.402954 3492.260010,665.071350 3492.260010,653.739746 
	C3492.260010,642.741455 3492.260010,631.743103 3492.260010,620.744812 
	C3492.260010,609.413208 3492.260010,598.081604 3492.260010,586.750000 
	C3492.260010,575.751709 3492.260010,564.753357 3492.260010,553.755066 
	C3492.260010,542.423462 3492.260010,531.091858 3492.260010,519.760254 
	C3492.260010,508.761932 3492.260010,497.763641 3492.260010,486.765320 
	C3492.260010,475.508179 3492.260010,464.251007 3492.260010,452.029663 
	C3465.507812,452.029663 3439.665039,452.029663 3412.452637,452.029663 
	C3412.123535,437.967804 3412.199463,424.853577 3412.442383,410.668274 
	C3438.193359,410.668274 3463.358154,410.668274 3488.220215,410.668274 
	C3489.080566,408.825592 3489.807861,407.971741 3489.842285,407.090851 
	C3490.605713,387.524597 3491.222656,367.952515 3492.010254,348.387329 
	C3493.312744,316.043610 3502.890137,286.374298 3521.663330,259.948059 
	C3527.011475,252.419434 3532.960205,245.082748 3539.729980,238.848938 
	C3552.897705,226.724030 3569.764893,222.145981 3586.770264,218.537231 
	C3594.875488,216.817230 3603.153076,215.296906 3611.398682,215.009857 
	C3621.310547,214.664825 3631.302002,215.384171 3641.203613,216.265518 
	C3655.435059,217.532257 3669.645508,219.273529 3683.153076,224.350479 
	C3686.794678,225.719162 3690.238037,227.616165 3694.974854,229.833618 
	C3691.213623,238.776230 3688.571533,247.424667 3684.111572,255.003601 
	C3679.544189,262.765076 3676.255859,262.931641 3669.233398,259.866394 
	C3647.168213,250.234955 3623.629395,249.784760 3600.439697,252.194183 
	C3573.056885,255.039276 3548.376709,272.671875 3540.297119,305.478455 
	C3536.765381,319.819000 3535.113037,334.128387 3535.078369,348.837494 
	C3535.037842,366.128113 3534.212158,383.416534 3533.761475,400.706787 
	C3533.675537,404.006073 3533.749268,407.309479 3533.749268,411.881622 
	C3545.441162,412.473755 3556.644043,412.151001 3567.823486,412.211334 
	C3579.488037,412.274292 3591.153320,412.233307 3602.818115,412.235199 
	C3614.104980,412.237030 3625.391602,412.235596 3637.767334,412.235596 
	C3638.848877,425.323212 3638.093018,437.797302 3638.287109,451.375122 
	C3603.487549,451.375122 3569.340576,451.375122 3533.739990,451.375122 
	C3533.739990,505.981506 3533.739990,559.490723 3533.739746,614.000000 
z"/>
<path fill="#B1C03F" opacity="1.000000" stroke="none" 
	d="
M2505.769531,503.583496 
	C2516.289062,475.777618 2526.724121,448.770325 2536.605713,421.562256 
	C2538.715088,415.754974 2541.629395,413.912476 2547.532959,414.136536 
	C2558.482178,414.552063 2569.458252,414.255524 2581.842773,414.255524 
	C2523.634766,561.976807 2465.844482,708.637512 2407.881104,855.738037 
	C2396.080811,855.738037 2384.551758,855.738037 2372.131836,855.738037 
	C2314.423096,709.305298 2256.621582,562.637085 2198.187988,414.364746 
	C2212.101562,414.364746 2224.872559,414.104645 2237.608398,414.653229 
	C2239.457764,414.732880 2241.830322,418.414856 2242.792480,420.884918 
	C2251.971680,444.448639 2260.946777,468.092255 2269.888916,491.747620 
	C2295.774902,560.224731 2321.616943,628.718323 2347.479004,697.204346 
	C2360.058838,730.517334 2372.638184,763.830444 2385.241211,797.134338 
	C2386.364746,800.103088 2387.665527,803.004578 2390.046631,806.008728 
	C2404.317139,772.909668 2416.512939,739.356323 2429.198730,705.997925 
	C2441.974121,672.404480 2454.717041,638.798584 2467.431152,605.181824 
	C2480.144043,571.568420 2492.803955,537.935059 2505.769531,503.583496 
z"/>
<path fill="#B1C03F" opacity="1.000000" stroke="none" 
	d="
M4506.799805,343.074524 
	C4507.385742,356.042969 4507.385742,368.280029 4507.385742,381.681946 
	C4454.939941,381.681946 4403.168945,381.681946 4350.451172,381.681946 
	C4350.451172,436.687653 4350.451172,490.523102 4350.451172,545.042969 
	C4337.000488,545.042969 4324.492188,545.042969 4310.566406,545.042969 
	C4309.960938,531.745544 4310.354980,518.223633 4310.286133,504.725861 
	C4310.216309,491.064911 4310.270996,477.403320 4310.270996,463.742004 
	C4310.270996,450.413910 4310.270996,437.085785 4310.270996,423.757690 
	C4310.270996,410.171783 4310.270996,396.585907 4310.270996,381.891205 
	C4257.909668,381.891205 4206.460449,381.891205 4154.363281,381.891205 
	C4154.363281,368.291321 4154.363281,355.798828 4154.363281,342.049072 
	C4164.408203,341.290375 4174.625977,341.819061 4184.802734,341.723663 
	C4195.131348,341.626801 4205.461426,341.702271 4215.790527,341.702271 
	C4226.119629,341.702271 4236.449219,341.702271 4246.778320,341.702271 
	C4257.107422,341.702271 4267.437012,341.702271 4277.766113,341.702271 
	C4288.052246,341.702271 4298.337891,341.702271 4310.004883,341.702271 
	C4310.547363,328.267548 4310.193359,315.417480 4310.256348,302.590057 
	C4310.321777,289.262238 4310.270996,275.933899 4310.270996,262.605774 
	C4310.270996,249.610870 4310.270996,236.615982 4310.270996,223.621078 
	C4310.270996,210.712555 4310.270996,197.804031 4310.270996,184.306763 
	C4323.815918,184.306763 4336.312500,184.306763 4349.879883,184.306763 
	C4349.879883,236.223389 4349.879883,288.029785 4349.879883,341.161194 
	C4354.692383,341.370056 4358.519531,341.677704 4362.346680,341.680603 
	C4406.662598,341.714447 4450.979004,341.687256 4495.294922,341.730011 
	C4498.934570,341.733521 4502.573730,342.129517 4506.799805,343.074524 
z"/>
<path fill="#B1C03D" opacity="1.000000" stroke="none" 
	d="
M3048.291992,746.000000 
	C3048.292236,783.543579 3048.292236,820.087097 3048.292236,857.146179 
	C3034.359131,857.146179 3021.569824,857.146179 3008.251953,857.146179 
	C3008.251953,709.509521 3008.251953,562.456543 3008.251953,414.789185 
	C3021.584229,414.789185 3034.373047,414.789185 3047.951660,414.789185 
	C3047.951660,441.538574 3047.951660,467.712952 3047.951660,496.422485 
	C3050.724854,492.853882 3052.058350,491.281738 3053.235840,489.600189 
	C3061.989258,477.099335 3070.417236,464.355988 3079.565674,452.152069 
	C3084.299316,445.837524 3090.495117,440.641479 3095.673584,434.632507 
	C3105.545654,423.177307 3118.510742,416.037079 3132.118408,410.987854 
	C3143.121826,406.905090 3155.282471,404.550812 3167.019775,404.163422 
	C3184.546143,403.584961 3202.153809,405.362823 3219.720215,406.267303 
	C3221.991699,406.384247 3224.339355,406.988281 3226.451904,407.854218 
	C3232.197021,410.208984 3239.915771,411.099884 3241.539551,417.976196 
	C3243.591064,426.664490 3243.906250,435.874298 3238.432617,444.017242 
	C3234.776367,449.456116 3229.261230,451.243866 3221.723389,449.266602 
	C3204.647461,444.787354 3187.434570,441.511353 3169.649902,441.621735 
	C3158.487061,441.691010 3147.703613,443.847168 3137.717529,448.266785 
	C3118.914551,456.588623 3102.651123,468.634918 3089.854980,484.969818 
	C3072.171631,507.543579 3059.669434,532.659851 3053.422119,560.705261 
	C3051.849121,567.768005 3050.817627,575.017273 3050.286377,582.235901 
	C3046.296631,636.444763 3049.129639,690.745911 3048.291992,746.000000 
z"/>
<path fill="#B2C141" opacity="1.000000" stroke="none" 
	d="
M3292.255371,782.000000 
	C3292.255371,659.168518 3292.255371,537.337036 3292.255371,414.877960 
	C3306.376465,414.877960 3319.479248,414.877960 3333.165039,414.877960 
	C3333.165039,561.743652 3333.165039,708.117310 3333.165039,855.752502 
	C3326.213135,855.752502 3319.655762,855.752502 3313.098389,855.752502 
	C3306.524414,855.752502 3299.950684,855.752502 3292.255127,855.752502 
	C3292.255127,830.766113 3292.255127,806.883057 3292.255371,782.000000 
z"/>
<path fill="#B1C03F" opacity="1.000000" stroke="none" 
	d="
M3288.957520,316.687134 
	C3279.780518,297.817719 3279.331543,279.590485 3289.479004,261.816010 
	C3294.452881,253.103867 3301.475342,247.231003 3312.659424,247.527664 
	C3321.597900,247.764786 3327.757080,252.037521 3332.606445,258.674835 
	C3344.580322,275.062531 3344.951904,302.093628 3333.716553,318.843903 
	C3326.889893,329.020569 3316.858887,333.854156 3306.663086,331.423523 
	C3298.739746,329.534607 3293.732910,323.731689 3288.957520,316.687134 
z"/>
<path fill="#FDFEFE" opacity="1.000000" stroke="none" 
	d="
M1918.315552,471.578766 
	C1931.962646,519.220276 1945.416748,566.075500 1959.139648,613.867065 
	C1910.594116,613.867065 1863.470215,613.867065 1814.852539,613.867065 
	C1838.660767,530.845032 1862.214233,448.711426 1885.767700,366.577820 
	C1886.573120,366.597443 1887.378662,366.617065 1888.184082,366.636658 
	C1898.163574,401.355255 1908.143066,436.073822 1918.315552,471.578766 
z"/>
<path fill="#FFFFFE" opacity="1.000000" stroke="none" 
	d="
M497.060486,625.540771 
	C500.373383,616.826843 503.811249,608.972412 506.456635,600.859619 
	C516.967590,568.625305 527.216064,536.305603 537.589905,504.026489 
	C550.398560,464.171387 563.236633,424.325714 576.059082,384.475006 
	C581.147461,368.661102 586.430786,352.905365 591.192871,336.993713 
	C592.700317,331.956818 595.209534,330.357178 600.338684,329.953308 
	C621.137634,328.315552 641.884766,326.030121 662.672546,324.232727 
	C668.212219,323.753784 673.828491,324.160278 681.050415,324.160278 
	C679.575378,330.021118 678.945068,334.534912 677.319275,338.655945 
	C667.558044,363.397614 657.528870,388.033356 647.662537,412.733795 
	C621.653381,477.847504 595.658447,542.966980 569.704651,608.102783 
	C556.911011,640.210876 544.234436,672.365540 531.473694,704.486694 
	C528.561279,711.817810 528.129761,712.046631 519.585693,712.140930 
	C512.260010,712.221802 504.933899,712.268677 496.673828,712.533325 
	C483.464874,712.736145 471.190002,712.736145 457.934082,712.736145 
	C428.862152,635.871460 400.029419,559.639221 370.726807,482.164581 
	C397.263672,482.164581 422.041870,482.164581 448.302216,482.164581 
	C462.635254,533.892578 477.022583,585.816406 491.675262,638.698120 
	C497.243927,634.874573 495.554138,630.023743 497.060486,625.540771 
z"/>
<path fill="#FEFEFD" opacity="1.000000" stroke="none" 
	d="
M2786.967285,438.708313 
	C2800.789551,441.701263 2814.215332,443.211212 2826.578613,447.667603 
	C2858.501953,459.174255 2879.451416,482.360565 2892.170166,513.452637 
	C2901.786621,536.960083 2907.229248,561.579102 2911.635986,586.447083 
	C2912.534668,591.518372 2911.766113,596.885132 2911.766113,601.804199 
	C2903.296143,604.204041 2643.220947,604.474915 2632.637451,602.146851 
	C2632.637451,597.211914 2631.869385,591.870789 2632.767822,586.826599 
	C2637.160889,562.163086 2643.822021,537.929443 2654.788818,515.501770 
	C2667.009277,490.510529 2686.147949,471.202057 2710.747314,457.538300 
	C2723.356934,450.534271 2736.418945,444.489258 2750.510254,441.840729 
	C2762.162598,439.650543 2774.212891,439.578278 2786.967285,438.708313 
z"/>
</svg>