<svg width="60" height="60" viewBox="0 0 60 60" fill="none" xmlns="http://www.w3.org/2000/svg">
<g clip-path="url(#clip0)">
<path d="M12.9297 0H18.2012L24.416 10.1238L30.7417 0H35.9022L24.416 18.652L12.9297 0Z" fill="#722772"/>
<path d="M0 19.6422L2.66348 15.4607H15.0931L8.93377 5.22682L11.4863 0.990234L22.9171 19.6422H0Z" fill="#E24A31"/>
<path d="M48.8858 21.293L46.2778 25.4745H33.8482L40.0075 35.8184L37.3995 40L25.9688 21.293H48.8858Z" fill="#89BF44"/>
<path d="M37.3995 0.935547L40.063 5.22716L33.7927 15.461H46.3333L48.8858 19.6426H25.9688L37.3995 0.935547Z" fill="#E77D26"/>
<path d="M11.4863 40L8.82279 35.7084L15.0931 25.4745H2.55251L0 21.293H22.9171L11.4863 40Z" fill="#F1B42A"/>
</g>
<defs>
<clipPath id="clip0">
<rect width="60" height="60" fill="white"/>
</clipPath>
</defs>
</svg>
